<?xml version="1.0" encoding="UTF-8" standalone="no"?>
<!-- Created with Inkscape (http://www.inkscape.org/) -->

<svg
   width="180.07349"
   height="40"
   viewBox="0 0 47.644443 10.583333"
   version="1.1"
   id="svg469"
   inkscape:version="1.2.2 (732a01da63, 2022-12-09, custom)"
   sodipodi:docname="logo.svg"
   xmlns:inkscape="http://www.inkscape.org/namespaces/inkscape"
   xmlns:sodipodi="http://sodipodi.sourceforge.net/DTD/sodipodi-0.dtd"
   xmlns="http://www.w3.org/2000/svg"
   xmlns:svg="http://www.w3.org/2000/svg">
  <sodipodi:namedview
     id="namedview471"
     pagecolor="#ffffff"
     bordercolor="#666666"
     borderopacity="1.0"
     inkscape:showpageshadow="2"
     inkscape:pageopacity="0.0"
     inkscape:pagecheckerboard="0"
     inkscape:deskcolor="#d1d1d1"
     inkscape:document-units="px"
     showgrid="false"
     inkscape:zoom="2"
     inkscape:cx="144"
     inkscape:cy="75.75"
     inkscape:window-width="1280"
     inkscape:window-height="960"
     inkscape:window-x="0"
     inkscape:window-y="0"
     inkscape:window-maximized="1"
     inkscape:current-layer="layer1" />
  <defs
     id="defs466">
    <rect
       x="-404.05115"
       y="-184.15874"
       width="503.38828"
       height="122.2182"
       id="rect604" />
  </defs>
  <g
     inkscape:label="Layer 1"
     inkscape:groupmode="layer"
     id="layer1"
     transform="translate(176.3582,12.381163)">
    <g
       id="g1248"
       transform="matrix(0.66301162,0,0,0.66301162,-59.430665,-4.1723081)">
      <g
         transform="matrix(1.549547,0,0,1.549547,-2635.1613,-7278.1503)"
         id="g19347"
         inkscape:export-filename="/home/tola/Documents/Krellian/WebThings/webthings_logos.png"
         inkscape:export-xdpi="98.618202"
         inkscape:export-ydpi="98.618202">
        <rect
           style="stroke-width:0.0873011"
           x="1586.7883"
           y="4688.9634"
           width="10.301408"
           height="10.301408"
           id="rect19321"
           rx="1.3229166"
           ry="1.3229166"
           inkscape:export-filename="/home/tola/Desktop/webthings_website.png"
           inkscape:export-xdpi="96.018608"
           inkscape:export-ydpi="96.018608" />
        <g
           style="stroke-width:2.3013"
           transform="matrix(0.24143917,0,0,0.24143917,1386.7678,2619.3112)"
           id="g19345"
           inkscape:export-filename="/home/tola/Desktop/webthings_website.png"
           inkscape:export-xdpi="96.018608"
           inkscape:export-ydpi="96.018608">
          <path
             style="color:#000000;clip-rule:nonzero;display:inline;overflow:visible;visibility:visible;opacity:1;isolation:auto;mix-blend-mode:normal;color-interpolation:sRGB;color-interpolation-filters:linearRGB;solid-color:#000000;solid-opacity:1;fill:#ffffff;fill-opacity:1;fill-rule:nonzero;stroke:none;stroke-width:14.7731;stroke-linecap:butt;stroke-linejoin:round;stroke-miterlimit:4;stroke-dasharray:none;stroke-dashoffset:0;stroke-opacity:1;color-rendering:auto;image-rendering:auto;shape-rendering:auto;text-rendering:auto;enable-background:accumulate"
             d="m 853.29942,8595.0859 a 5.5395312,5.5395312 0 0 1 -5.53953,5.5396 5.5395312,5.5395312 0 0 1 -5.53953,-5.5396 5.5395312,5.5395312 0 0 1 5.53953,-5.5395 5.5395312,5.5395312 0 0 1 5.53953,5.5395 z"
             id="path19323"
             inkscape:connector-curvature="0" />
          <path
             style="color:#000000;clip-rule:nonzero;display:inline;overflow:visible;visibility:visible;opacity:1;isolation:auto;mix-blend-mode:normal;color-interpolation:sRGB;color-interpolation-filters:linearRGB;solid-color:#000000;solid-opacity:1;fill:#ffffff;fill-opacity:1;fill-rule:nonzero;stroke:none;stroke-width:14.7731;stroke-linecap:butt;stroke-linejoin:round;stroke-miterlimit:4;stroke-dasharray:none;stroke-dashoffset:0;stroke-opacity:1;color-rendering:auto;image-rendering:auto;shape-rendering:auto;text-rendering:auto;enable-background:accumulate"
             d="m 854.65427,8582.6074 a 3.3533037,3.3533037 0 0 1 -3.35331,3.3533 3.3533037,3.3533037 0 0 1 -3.3533,-3.3533 3.3533037,3.3533037 0 0 1 3.3533,-3.3533 3.3533037,3.3533037 0 0 1 3.35331,3.3533 z"
             id="path19325"
             inkscape:connector-curvature="0" />
          <path
             style="color:#000000;clip-rule:nonzero;display:inline;overflow:visible;visibility:visible;opacity:1;isolation:auto;mix-blend-mode:normal;color-interpolation:sRGB;color-interpolation-filters:linearRGB;solid-color:#000000;solid-opacity:1;fill:#ffffff;fill-opacity:1;fill-rule:nonzero;stroke:none;stroke-width:14.7731;stroke-linecap:butt;stroke-linejoin:round;stroke-miterlimit:4;stroke-dasharray:none;stroke-dashoffset:0;stroke-opacity:1;color-rendering:auto;image-rendering:auto;shape-rendering:auto;text-rendering:auto;enable-background:accumulate"
             d="m 865.78336,8592.0508 a 3.3533037,3.3533037 0 0 1 -3.35331,3.3533 3.3533037,3.3533037 0 0 1 -3.3533,-3.3533 3.3533037,3.3533037 0 0 1 3.3533,-3.3533 3.3533037,3.3533037 0 0 1 3.35331,3.3533 z"
             id="path19327"
             inkscape:connector-curvature="0" />
          <path
             style="color:#000000;clip-rule:nonzero;display:inline;overflow:visible;visibility:visible;opacity:1;isolation:auto;mix-blend-mode:normal;color-interpolation:sRGB;color-interpolation-filters:linearRGB;solid-color:#000000;solid-opacity:1;fill:#ffffff;fill-opacity:1;fill-rule:nonzero;stroke:none;stroke-width:14.7731;stroke-linecap:butt;stroke-linejoin:round;stroke-miterlimit:4;stroke-dasharray:none;stroke-dashoffset:0;stroke-opacity:1;color-rendering:auto;image-rendering:auto;shape-rendering:auto;text-rendering:auto;enable-background:accumulate"
             d="m 860.21884,8604.3604 a 3.3533037,3.3533037 0 0 1 -3.3533,3.3533 3.3533037,3.3533037 0 0 1 -3.3533,-3.3533 3.3533037,3.3533037 0 0 1 3.3533,-3.3534 3.3533037,3.3533037 0 0 1 3.3533,3.3534 z"
             id="path19329"
             inkscape:connector-curvature="0" />
          <path
             style="color:#000000;clip-rule:nonzero;display:inline;overflow:visible;visibility:visible;opacity:1;isolation:auto;mix-blend-mode:normal;color-interpolation:sRGB;color-interpolation-filters:linearRGB;solid-color:#000000;solid-opacity:1;fill:#ffffff;fill-opacity:1;fill-rule:nonzero;stroke:none;stroke-width:14.7731;stroke-linecap:butt;stroke-linejoin:round;stroke-miterlimit:4;stroke-dasharray:none;stroke-dashoffset:0;stroke-opacity:1;color-rendering:auto;image-rendering:auto;shape-rendering:auto;text-rendering:auto;enable-background:accumulate"
             d="m 841.33304,8602.8428 a 3.3533037,3.3533037 0 0 1 -3.3533,3.3533 3.3533037,3.3533037 0 0 1 -3.35331,-3.3533 3.3533037,3.3533037 0 0 1 3.35331,-3.3533 3.3533037,3.3533037 0 0 1 3.3533,3.3533 z"
             id="path19331"
             inkscape:connector-curvature="0" />
          <path
             style="color:#000000;clip-rule:nonzero;display:inline;overflow:visible;visibility:visible;opacity:1;isolation:auto;mix-blend-mode:normal;color-interpolation:sRGB;color-interpolation-filters:linearRGB;solid-color:#000000;solid-opacity:1;fill:#ffffff;fill-opacity:1;fill-rule:nonzero;stroke:none;stroke-width:14.7731;stroke-linecap:butt;stroke-linejoin:round;stroke-miterlimit:4;stroke-dasharray:none;stroke-dashoffset:0;stroke-opacity:1;color-rendering:auto;image-rendering:auto;shape-rendering:auto;text-rendering:auto;enable-background:accumulate"
             d="m 840.48996,8585.1377 a 3.3533037,3.3533037 0 0 1 -3.3533,3.3533 3.3533037,3.3533037 0 0 1 -3.35331,-3.3533 3.3533037,3.3533037 0 0 1 3.35331,-3.3533 3.3533037,3.3533037 0 0 1 3.3533,3.3533 z"
             id="path19333"
             inkscape:connector-curvature="0" />
          <path
             style="fill:none;fill-rule:evenodd;stroke:#ffffff;stroke-width:3.28758;stroke-linecap:butt;stroke-linejoin:miter;stroke-miterlimit:4;stroke-dasharray:none;stroke-opacity:1"
             d="m 839.58425,8587.4298 4.13232,3.8697"
             id="path19335"
             inkscape:connector-curvature="0" />
          <path
             style="fill:none;fill-rule:evenodd;stroke:#ffffff;stroke-width:3.28758;stroke-linecap:butt;stroke-linejoin:miter;stroke-miterlimit:4;stroke-dasharray:none;stroke-opacity:1"
             d="m 859.14635,8592.7302 -5.96191,1.2334"
             id="path19337"
             inkscape:connector-curvature="0" />
          <path
             style="fill:none;fill-rule:evenodd;stroke:#ffffff;stroke-width:3.28758;stroke-linecap:butt;stroke-linejoin:miter;stroke-miterlimit:4;stroke-dasharray:none;stroke-opacity:1"
             d="m 854.5163,8601.9676 -2.87556,-2.9289"
             id="path19339"
             inkscape:connector-curvature="0" />
          <path
             style="fill:none;fill-rule:evenodd;stroke:#ffffff;stroke-width:3.28758;stroke-linecap:butt;stroke-linejoin:miter;stroke-miterlimit:4;stroke-dasharray:none;stroke-opacity:1"
             d="m 840.60697,8600.7591 2.81282,-2.2309"
             id="path19341"
             inkscape:connector-curvature="0" />
          <path
             style="fill:none;fill-rule:evenodd;stroke:#ffffff;stroke-width:3.28758;stroke-linecap:butt;stroke-linejoin:miter;stroke-miterlimit:4;stroke-dasharray:none;stroke-opacity:1"
             d="m 850.38555,8585.8333 -1.11343,3.9236"
             id="path19343"
             inkscape:connector-curvature="0" />
        </g>
      </g>
      <g
         aria-label="WebThings"
         id="text19319"
         style="font-size:3.40514px;line-height:0%;letter-spacing:0px;word-spacing:0px;fill:#ffffff;stroke-width:0.283762px">
        <path
           d="m -147.08316,-10.016768 h -0.56398 l -1.88348,5.9058104 h -0.87257 l -1.69193,-4.8736238 h -0.0532 l -1.63873,4.8736238 h -0.88321 l -2.00053,-5.9058104 h -0.5959 v -1.010905 h 2.62835 v 1.010905 h -0.76615 l 1.1918,3.9584891 h 0.0532 l 1.37271,-3.9584891 h -0.60655 v -1.010905 h 2.61771 v 1.010905 h -0.56397 l 1.3727,4.0116946 h 0.0532 l 1.0854,-4.0116946 h -0.85129 v -1.010905 h 2.59643 z"
           style="font-weight:600;font-family:'Zilla Slab';-inkscape-font-specification:'Zilla Slab Semi-Bold'"
           id="path941" />
        <path
           d="m -142.77355,-5.5687883 q -0.0639,0.6278249 -0.61719,1.0960333 -0.55333,0.4682084 -1.52167,0.4682084 -1.04283,0 -1.71322,-0.6065427 -0.67039,-0.6171838 -0.67039,-1.808987 0,-1.0960333 0.60654,-1.8302692 0.61719,-0.7342359 1.71322,-0.7342359 0.98962,0 1.56424,0.5959016 0.58526,0.5852605 0.5959,1.489754 0,0.2979508 -0.0638,0.638466 h -3.22426 q 0.0958,1.3407786 1.27694,1.3407786 0.55333,0 0.78744,-0.2660275 0.24474,-0.2660275 0.31923,-0.5639783 z m -1.21309,-1.3939841 q 0.0426,-0.425644 -0.20218,-0.7980825 -0.2341,-0.3830796 -0.79808,-0.3830796 -0.51077,0 -0.7768,0.3405152 -0.26603,0.3405152 -0.32988,0.8406469 z"
           style="font-weight:600;font-family:'Zilla Slab';-inkscape-font-specification:'Zilla Slab Semi-Bold'"
           id="path943" />
        <path
           d="m -136.99545,-6.6116161 q 0,1.0109045 -0.53205,1.808987 -0.53206,0.7980825 -1.63873,0.7980825 -1.12796,0 -1.58553,-0.851288 -0.0213,0.1276932 -0.0532,0.3724385 -0.0319,0.2447453 -0.0532,0.3724385 h -1.12795 q 0.0638,-0.3511563 0.11705,-0.7129537 0.0532,-0.3724385 0.0532,-0.7235948 v -5.0119579 h -0.71295 v -0.87257 h 1.84091 v 3.4902804 q 0.21282,-0.425644 0.5959,-0.7342359 0.39372,-0.3085919 1.05347,-0.3085919 0.90449,0 1.46847,0.6278249 0.57462,0.6171838 0.57462,1.7451404 z m -1.18116,0.09577 q 0,-0.7555181 -0.34052,-1.1492388 -0.34051,-0.4043618 -0.87257,-0.4043618 -0.60654,0 -0.94705,0.4469262 -0.34052,0.4469262 -0.35116,0.9683401 v 0.3405152 q 0,0.5852605 0.34052,1.0002634 0.35115,0.4043618 0.91513,0.4043618 0.5959,0 0.92578,-0.4362851 0.32987,-0.4362851 0.32987,-1.170521 z"
           style="font-weight:600;font-family:'Zilla Slab';-inkscape-font-specification:'Zilla Slab Semi-Bold'"
           id="path945" />
        <path
           d="m -130.60017,-8.7717594 -1.02154,0.085129 -0.21282,-1.3301376 h -1.35142 v 4.8949061 h 1.15988 v 1.0109045 h -3.45836 v -1.0109045 h 1.11731 v -4.8949061 h -1.36206 l -0.21282,1.3301376 -1.0109,-0.085129 0.21282,-2.2559136 h 5.92709 z"
           style="font-weight:600;font-family:'Zilla Slab';-inkscape-font-specification:'Zilla Slab Semi-Bold'"
           id="path947" />
        <path
           d="m -124.39641,-4.1109576 h -2.5645 v -0.8725702 h 0.71295 v -1.8728336 q 0,-0.6810304 -0.25538,-0.957699 -0.25539,-0.2873097 -0.69168,-0.2873097 -0.52141,0 -0.83,0.3405152 -0.30859,0.3405152 -0.32988,0.8300058 v 1.9473213 h 0.70232 v 0.8725702 h -2.55387 v -0.8725702 h 0.71296 v -5.5759362 h -0.71296 v -0.87257 h 1.85155 v 3.3306639 q 0.48949,-0.8832113 1.58553,-0.8832113 0.69167,0 1.17052,0.4150029 0.48949,0.4150029 0.48949,1.2982142 v 2.2878365 h 0.71295 z"
           style="font-weight:600;font-family:'Zilla Slab';-inkscape-font-specification:'Zilla Slab Semi-Bold'"
           id="path949" />
        <path
           d="m -123.27909,-9.8784338 v -1.2556502 h 1.15988 v 1.2556502 z m 1.90476,5.7674762 h -2.55387 v -0.8725702 h 0.71296 v -3.0220724 h -0.75552 v -0.8832113 h 1.88347 v 3.9052837 h 0.71296 z"
           style="font-weight:600;font-family:'Zilla Slab';-inkscape-font-specification:'Zilla Slab Semi-Bold'"
           id="path951" />
        <path
           d="m -115.05352,-4.1109576 h -2.55387 v -0.8725702 h 0.70231 v -1.8728336 q 0,-0.6810304 -0.24474,-0.957699 -0.24475,-0.2873097 -0.68103,-0.2873097 -0.5427,0 -0.86193,0.3511563 -0.30859,0.3511563 -0.31923,0.8619291 v 1.9047569 h 0.71295 v 0.8725702 h -2.56451 v -0.8725702 h 0.71296 v -3.0220724 h -0.74488 v -0.8832113 h 1.88348 v 0.7768003 q 0.50013,-0.8725702 1.58552,-0.8725702 0.68103,0 1.17052,0.4150029 0.48949,0.4150029 0.48949,1.2982142 v 2.2878365 h 0.71296 z"
           style="font-weight:600;font-family:'Zilla Slab';-inkscape-font-specification:'Zilla Slab Semi-Bold'"
           id="path953" />
        <path
           d="m -109.12644,-8.0056002 h -0.69168 v 3.7137439 q 0,1.1385977 -0.63846,1.8409103 -0.62783,0.7023126 -1.88348,0.7023126 -0.74487,0 -1.39398,-0.319233 -0.64911,-0.319233 -0.91514,-1.0960333 l 0.88322,-0.4788495 q 0.44692,0.9789812 1.44719,0.9789812 0.5959,0 0.97898,-0.425644 0.38308,-0.425644 0.38308,-1.2130854 v -0.7129537 q -0.20218,0.3830796 -0.58526,0.6597482 -0.37244,0.2660275 -1.03219,0.2660275 -0.84065,0 -1.45783,-0.5852605 -0.60654,-0.5959016 -0.60654,-1.7238582 0,-1.0215456 0.54269,-1.7983459 0.55334,-0.7874414 1.59617,-0.7874414 1.08539,0 1.54296,0.8406469 v -0.744877 h 1.83027 z m -1.83027,1.6174472 v -0.3830796 q 0,-0.5959016 -0.34052,-0.9470579 -0.34051,-0.3511563 -0.85129,-0.3511563 -0.5959,0 -0.91513,0.4362851 -0.31923,0.425644 -0.31923,1.1598799 0,0.7555181 0.31923,1.1173155 0.31923,0.3511563 0.80872,0.3511563 0.60654,0 0.94706,-0.425644 0.35116,-0.425644 0.35116,-0.957699 z"
           style="font-weight:600;font-family:'Zilla Slab';-inkscape-font-specification:'Zilla Slab Semi-Bold'"
           id="path955" />
        <path
           d="m -104.49757,-5.536865 q 0,0.744877 -0.61719,1.1385977 -0.60654,0.3937207 -1.5536,0.3937207 -0.51077,0 -1.03219,-0.1170521 -0.51077,-0.1170521 -0.92577,-0.3511563 l 0.17026,-1.2343676 0.89385,0.085129 -0.0106,0.6171838 q 0.20218,0.085129 0.42564,0.1170521 0.23411,0.031923 0.415,0.031923 0.43629,0 0.75552,-0.1489754 0.32988,-0.1596165 0.32988,-0.4682084 0,-0.2979508 -0.29795,-0.425644 -0.28731,-0.1276932 -0.7236,-0.1915398 -0.43628,-0.074488 -0.87257,-0.1915398 -0.43628,-0.1276932 -0.73424,-0.4043618 -0.28731,-0.2873097 -0.28731,-0.851288 0,-0.8300058 0.62783,-1.1385977 0.63847,-0.3085919 1.34078,-0.3085919 0.92577,0 1.74514,0.4362851 l 0.11705,1.1811621 -0.89385,0.106411 -0.0958,-0.7129537 q -0.415,-0.1596165 -0.84065,-0.1596165 -0.32987,0 -0.56398,0.1383343 -0.22346,0.1276932 -0.22346,0.4150029 0,0.2979508 0.28731,0.4150029 0.28731,0.1170521 0.71295,0.1915398 0.42565,0.063847 0.85129,0.1915398 0.42565,0.1170521 0.71296,0.4043618 0.28731,0.2766686 0.28731,0.8406469 z"
           style="font-weight:600;font-family:'Zilla Slab';-inkscape-font-specification:'Zilla Slab Semi-Bold'"
           id="path957" />
      </g>
      <g
         aria-label="Documentation"
         id="text19353"
         style="font-size:2.07456px;line-height:0%;letter-spacing:0px;word-spacing:0px;fill:#ffffff;stroke-width:0.17288px">
        <path
           d="m -153.22777,0.45392557 q 0,0.92707323 -0.57051,1.52351203 -0.56402,0.5899557 -1.56241,0.5899557 h -1.90601 V 2.1589624 h 0.53161 v -3.3971076 h -0.53161 v -0.4084309 h 1.88656 q 1.0308,0 1.58835,0.5964388 0.56402,0.58995567 0.56402,1.50406287 z m -0.50568,0.006483 q 0,-0.76499752 -0.42788,-1.23177567 -0.42139,-0.4667781 -1.22529,-0.4667781 h -0.87521 v 3.3971076 h 0.87521 q 0.8039,0 1.22529,-0.4538121 0.42788,-0.4602951 0.42788,-1.24474173 z"
           style="font-size:6.48303px;line-height:1.25;font-family:'Zilla Slab';-inkscape-font-specification:'Zilla Slab Bold'"
           id="path960" />
        <path
           d="m -149.88253,1.1216776 q 0,0.6547861 -0.38898,1.082666 -0.38898,0.42788 -1.05673,0.42788 -0.65479,0 -1.03081,-0.4149139 -0.36953,-0.4149139 -0.36953,-1.0696999 0,-0.62885393 0.36305,-1.07618299 0.36305,-0.45381209 1.06322,-0.45381209 0.70665,0 1.06322,0.44732906 0.35656,0.44084603 0.35656,1.05673382 z m -0.47974,-0.00648 q 0,-0.49271025 -0.25284,-0.79741265 -0.24636,-0.31118543 -0.70017,-0.31118543 -0.45381,0 -0.70017,0.31766846 -0.23987,0.31766846 -0.23987,0.79741262 0,0.4732612 0.23987,0.7974127 0.23988,0.3241515 0.70017,0.3241515 0.4603,0 0.70665,-0.3176685 0.24636,-0.3241514 0.24636,-0.8103787 z"
           style="font-size:6.48303px;line-height:1.25;font-family:'Zilla Slab';-inkscape-font-specification:'Zilla Slab Bold'"
           id="path962" />
        <path
           d="m -146.86793,1.5949388 q -0.0583,0.3760158 -0.3436,0.7066503 -0.27877,0.3306345 -0.87521,0.3306345 -0.59644,0 -0.953,-0.3824988 -0.35657,-0.3889817 -0.35657,-1.0826659 0,-0.59643879 0.33712,-1.06969997 0.33711,-0.47326118 1.01135,-0.47326118 0.28525,0 0.52513,0.0648303 0.23987,0.0648303 0.46029,0.23338908 l 0.11021,0.69368419 -0.37601,0.0453812 -0.11022,-0.48622724 q -0.25932,-0.16207574 -0.61588,-0.16207574 -0.4603,0 -0.66127,0.33063452 -0.20098,0.33063452 -0.20098,0.79741264 0,0.5186424 0.22691,0.8103788 0.22691,0.2917363 0.65479,0.2917363 0.6483,0 0.77796,-0.7325824 z"
           style="font-size:6.48303px;line-height:1.25;font-family:'Zilla Slab';-inkscape-font-specification:'Zilla Slab Bold'"
           id="path964" />
        <path
           d="m -143.10777,2.5673933 h -0.97246 V 2.0228188 q -0.13614,0.2722872 -0.40194,0.440846 -0.25933,0.1685588 -0.60293,0.1685588 -0.42139,0 -0.71313,-0.2593212 -0.28525,-0.2658042 -0.28525,-0.8427939 V 0.05197772 h -0.50568 v -0.3695327 h 0.95949 V 1.4004479 q 0,0.4667782 0.19449,0.654786 0.19449,0.1880079 0.49919,0.1880079 0.36954,0 0.60292,-0.2787703 0.23988,-0.2787703 0.25284,-0.5899557 V 0.05197772 h -0.60292 v -0.3695327 h 1.05674 V 2.1978606 h 0.51864 z"
           style="font-size:6.48303px;line-height:1.25;font-family:'Zilla Slab';-inkscape-font-specification:'Zilla Slab Bold'"
           id="path966" />
        <path
           d="m -137.47403,2.5673933 h -1.38088 V 2.1978606 h 0.4214 V 0.85587342 q 0,-0.46677814 -0.18801,-0.65478601 -0.18153,-0.19449089 -0.46678,-0.19449089 -0.39547,0 -0.60941,0.29821937 -0.21394,0.29821937 -0.22042,0.57050662 V 2.1978606 h 0.4992 v 0.3695327 h -1.37441 V 2.1978606 h 0.41492 V 0.85587342 q 0,-0.47326117 -0.18153,-0.66126904 -0.18152,-0.18800786 -0.46029,-0.18800786 -0.40195,0 -0.61589,0.29173634 -0.20746,0.28525331 -0.22042,0.56402359 V 2.1978606 h 0.5316 v 0.3695327 h -1.49109 V 2.1978606 h 0.50567 V 0.05197772 h -0.51216 v -0.3695327 h 0.96598 V 0.2205365 q 0.14262,-0.25932119 0.38249,-0.42787997 0.23988,-0.16855878 0.58348,-0.16855878 0.33711,0 0.58347,0.16855878 0.25284,0.16855878 0.3436,0.52512542 0.12966,-0.3047024 0.3825,-0.4991933 0.25932,-0.1944909 0.63534,-0.1944909 0.41491,0 0.6872,0.2593212 0.27877,0.25932119 0.27877,0.83631085 v 1.4781308 h 0.50567 z"
           style="font-size:6.48303px;line-height:1.25;font-family:'Zilla Slab';-inkscape-font-specification:'Zilla Slab Bold'"
           id="path968" />
        <path
           d="m -134.59557,1.7375655 q -0.0583,0.3695327 -0.36953,0.6353369 -0.31119,0.2593212 -0.84279,0.2593212 -0.60941,0 -0.98542,-0.3824988 -0.37602,-0.3824987 -0.37602,-1.0826659 0,-0.67423515 0.35657,-1.10859815 0.35656,-0.434363 0.96597,-0.434363 0.59644,0 0.90762,0.37601573534 0.31119,0.37601573466 0.31767,0.88817508466 0,0.16855873 -0.0389,0.34360063 h -2.02919 q 0.0389,1.0113526 0.91411,1.0113526 0.3436,0 0.53809,-0.1620757 0.19449,-0.1620758 0.25932,-0.42788 z m -0.50567,-0.8427939 q 0.0324,-0.32415149 -0.1556,-0.6094048 -0.18152,-0.28525331466 -0.60292,-0.28525331466 -0.40195,0 -0.58995,0.26580422466 -0.18801,0.26580422 -0.23339,0.62885389 z"
           style="font-size:6.48303px;line-height:1.25;font-family:'Zilla Slab';-inkscape-font-specification:'Zilla Slab Bold'"
           id="path970" />
        <path
           d="m -130.71224,2.5673933 h -1.45868 V 2.1978606 h 0.49919 V 0.85587342 q 0,-0.46677814 -0.188,-0.65478601 -0.18801,-0.19449089 -0.47975,-0.19449089 -0.38898,0 -0.62885,0.25932119 -0.23339,0.25283816 -0.24636,0.58347268 V 2.1978606 h 0.50568 v 0.3695327 h -1.46516 V 2.1978606 h 0.50567 V 0.05197772 h -0.51864 v -0.3695327 h 0.97245 v 0.51215936 q 0.31119,-0.57050663 1.01136,-0.57050663 0.42139,0 0.70665,0.2593212 0.28525,0.25932119 0.28525,0.83631085 v 1.4781308 h 0.49919 z"
           style="font-size:6.48303px;line-height:1.25;font-family:'Zilla Slab';-inkscape-font-specification:'Zilla Slab Bold'"
           id="path972" />
        <path
           d="m -128.2811,1.7894297 q -0.1167,0.8427939 -0.91411,0.8427939 -0.43436,0 -0.66775,-0.2463551 -0.22691,-0.2463552 -0.22691,-0.6677521 V 0.04549469 h -0.46678 v -0.36304967 h 0.46678 V -1.2446282 h 0.45382 v 0.92707322 h 1.12804 v 0.36304967 h -1.12804 V 1.6597691 q 0,0.2593212 0.11021,0.421397 0.11669,0.1555927 0.37601,0.1555927 0.16856,0 0.31119,-0.1037285 0.14911,-0.1037285 0.21394,-0.4538121 z"
           style="font-size:6.48303px;line-height:1.25;font-family:'Zilla Slab';-inkscape-font-specification:'Zilla Slab Bold'"
           id="path974" />
        <path
           d="m -127.72357,-0.09713196 q 0.2269,-0.14910969 0.47974,-0.21393999 0.25284,-0.0648303 0.53809,-0.0648303 1.03081,0 1.03081,0.96597145 v 1.3744023 q 0,0.3111855 0.24635,0.3111855 0.11021,0 0.19449,-0.038898 l 0.006,0.2982194 q -0.17504,0.097245 -0.37601,0.097245 -0.51216,0 -0.52513,-0.5834727 v -0.012966 q -0.13614,0.233389 -0.38898,0.4149139 -0.24635,0.1815248 -0.59644,0.1815248 -0.28525,0 -0.58347,-0.1750418 -0.29174,-0.1750418 -0.29174,-0.6353369 0,-0.5445745 0.42788,-0.7131333 0.43437,-0.17504182 0.92059,-0.17504182 0.12966,0 0.25933,0.006483 0.13614,0.006483 0.25283,0.0194491 V 0.70028071 q 0,-0.31118543 -0.13614,-0.50567633 -0.12966,-0.19449089466 -0.51864,-0.19449089466 -0.31767,0 -0.55754,0.11669453466 l -0.11021,0.4991933 -0.37602,-0.0453812 z m 1.59482,1.58185926 v -0.220423 q -0.12317,-0.00648 -0.25932,-0.019449 -0.13614,-0.012966 -0.27877,-0.012966 -0.32415,0 -0.58995,0.1037284 -0.25932,0.097246 -0.25932,0.434363 0,0.2787703 0.17504,0.3824988 0.17504,0.1037285 0.36305,0.1037285 0.29822,0 0.55754,-0.207457 0.2658,-0.2074569 0.29173,-0.5640237 z"
           style="font-size:6.48303px;line-height:1.25;font-family:'Zilla Slab';-inkscape-font-specification:'Zilla Slab Bold'"
           id="path976" />
        <path
           d="m -122.7446,1.7894297 q -0.1167,0.8427939 -0.91411,0.8427939 -0.43436,0 -0.66775,-0.2463551 -0.22691,-0.2463552 -0.22691,-0.6677521 V 0.04549469 h -0.46678 v -0.36304967 h 0.46678 V -1.2446282 h 0.45381 v 0.92707322 h 1.12805 v 0.36304967 h -1.12805 V 1.6597691 q 0,0.2593212 0.11021,0.421397 0.1167,0.1555927 0.37602,0.1555927 0.16856,0 0.31118,-0.1037285 0.14911,-0.1037285 0.21394,-0.4538121 z"
           style="font-size:6.48303px;line-height:1.25;font-family:'Zilla Slab';-inkscape-font-specification:'Zilla Slab Bold'"
           id="path978" />
        <path
           d="m -122.03148,-1.0631034 v -0.5899557 h 0.49271 v 0.5899557 z m 1.00487,3.6304967 h -1.46517 V 2.1978606 h 0.50568 V 0.05197772 h -0.51864 v -0.3695327 h 0.97245 V 2.1978606 h 0.50568 z"
           style="font-size:6.48303px;line-height:1.25;font-family:'Zilla Slab';-inkscape-font-specification:'Zilla Slab Bold'"
           id="path980" />
        <path
           d="m -117.81104,1.1216776 q 0,0.6547861 -0.38898,1.082666 -0.38898,0.42788 -1.05673,0.42788 -0.65479,0 -1.03081,-0.4149139 -0.36953,-0.4149139 -0.36953,-1.0696999 0,-0.62885393 0.36305,-1.07618299 0.36305,-0.45381209 1.06322,-0.45381209 0.70665,0 1.06321,0.44732906 0.35657,0.44084603 0.35657,1.05673382 z m -0.47974,-0.00648 q 0,-0.49271025 -0.25284,-0.79741265 -0.24636,-0.31118543 -0.70017,-0.31118543 -0.45381,0 -0.70017,0.31766846 -0.23987,0.31766846 -0.23987,0.79741262 0,0.4732612 0.23987,0.7974127 0.23988,0.3241515 0.70017,0.3241515 0.4603,0 0.70665,-0.3176685 0.24636,-0.3241514 0.24636,-0.8103787 z"
           style="font-size:6.48303px;line-height:1.25;font-family:'Zilla Slab';-inkscape-font-specification:'Zilla Slab Bold'"
           id="path982" />
        <path
           d="m -113.91475,2.5673933 h -1.45868 V 2.1978606 h 0.4992 V 0.85587342 q 0,-0.46677814 -0.18801,-0.65478601 -0.18801,-0.19449089 -0.47975,-0.19449089 -0.38898,0 -0.62885,0.25932119 -0.23339,0.25283816 -0.24636,0.58347268 V 2.1978606 h 0.50568 v 0.3695327 h -1.46516 V 2.1978606 h 0.50567 V 0.05197772 h -0.51864 v -0.3695327 h 0.97245 v 0.51215936 q 0.31119,-0.57050663 1.01136,-0.57050663 0.42139,0 0.70665,0.2593212 0.28525,0.25932119 0.28525,0.83631085 v 1.4781308 h 0.49919 z"
           style="font-size:6.48303px;line-height:1.25;font-family:'Zilla Slab';-inkscape-font-specification:'Zilla Slab Bold'"
           id="path984" />
      </g>
    </g>
  </g>
</svg>
